<mxfile host="app.diagrams.net" agent="Mozilla/5.0 (Macintosh; Intel Mac OS X 10_15_7) AppleWebKit/537.36 (KHTML, like Gecko) Chrome/139.0.0.0 Safari/537.36" version="28.2.1">
  <diagram name="Page-1" id="pWAySRSQpgBYtOJr-uDz">
    <mxGraphModel dx="1186" dy="760" grid="1" gridSize="10" guides="1" tooltips="1" connect="1" arrows="1" fold="1" page="1" pageScale="1" pageWidth="827" pageHeight="1169" math="0" shadow="0">
      <root>
        <mxCell id="0" />
        <mxCell id="1" parent="0" />
        <mxCell id="8QmGb76ZduSFkE2n4Eqo-1" value="User&lt;div&gt;userid&lt;/div&gt;&lt;div&gt;vector&amp;lt;loanid&amp;gt;&lt;/div&gt;&lt;div&gt;outstandingamount&lt;br&gt;&lt;br&gt;int getoutstandingbalance&lt;br&gt;&lt;br&gt;&lt;/div&gt;" style="rounded=0;whiteSpace=wrap;html=1;" vertex="1" parent="1">
          <mxGeometry x="180" width="270" height="120" as="geometry" />
        </mxCell>
        <mxCell id="8QmGb76ZduSFkE2n4Eqo-2" value="Loan&lt;div&gt;Loanid&lt;/div&gt;&lt;div&gt;vector&amp;lt;paymentsid&amp;gt;&lt;/div&gt;&lt;div&gt;loanamount&lt;br&gt;receivedamount&lt;br&gt;&lt;br&gt;paymentReceived(amount, pid)&lt;/div&gt;" style="rounded=0;whiteSpace=wrap;html=1;" vertex="1" parent="1">
          <mxGeometry x="470" y="340" width="240" height="160" as="geometry" />
        </mxCell>
        <mxCell id="8QmGb76ZduSFkE2n4Eqo-3" value="Payment&lt;div&gt;Modeofpayment&lt;/div&gt;&lt;div&gt;amount&lt;/div&gt;&lt;div&gt;loanid&lt;/div&gt;&lt;div&gt;&lt;br&gt;&lt;/div&gt;" style="rounded=0;whiteSpace=wrap;html=1;" vertex="1" parent="1">
          <mxGeometry x="120" y="310" width="120" height="100" as="geometry" />
        </mxCell>
        <mxCell id="8QmGb76ZduSFkE2n4Eqo-4" value="LoanManager&lt;div&gt;unordered_map&amp;lt;int, loan&amp;gt;&lt;br&gt;unordered_map&amp;lt;userid, vector&amp;lt;loanid&amp;gt;&amp;gt;&lt;/div&gt;&lt;div&gt;&lt;br&gt;&lt;/div&gt;&lt;div&gt;&lt;br&gt;&lt;/div&gt;&lt;div&gt;&lt;div&gt;Loan* takeloan(userid, loanid, amount)&lt;br&gt;Payment* paybill(userid, loanid, amount)&lt;br&gt;void showLoansDetails(userid)&lt;br&gt;&lt;br&gt;&lt;br&gt;&lt;/div&gt;&lt;div&gt;&lt;br&gt;&lt;/div&gt;&lt;/div&gt;" style="rounded=0;whiteSpace=wrap;html=1;" vertex="1" parent="1">
          <mxGeometry x="520" y="30" width="200" height="220" as="geometry" />
        </mxCell>
        <mxCell id="8QmGb76ZduSFkE2n4Eqo-5" value="PaymentManager&lt;div&gt;unodered_map&amp;lt;pid, payment&amp;gt;&lt;/div&gt;&lt;div&gt;Paybill&lt;/div&gt;&lt;div&gt;Fetchallpayments;&lt;br&gt;show payment details&lt;/div&gt;" style="rounded=0;whiteSpace=wrap;html=1;" vertex="1" parent="1">
          <mxGeometry x="80" y="150" width="250" height="100" as="geometry" />
        </mxCell>
        <mxCell id="8QmGb76ZduSFkE2n4Eqo-6" value="" style="endArrow=classic;html=1;rounded=0;exitX=1;exitY=0.5;exitDx=0;exitDy=0;entryX=0.5;entryY=0;entryDx=0;entryDy=0;" edge="1" parent="1" source="8QmGb76ZduSFkE2n4Eqo-1" target="8QmGb76ZduSFkE2n4Eqo-4">
          <mxGeometry width="50" height="50" relative="1" as="geometry">
            <mxPoint x="390" y="310" as="sourcePoint" />
            <mxPoint x="480" y="90" as="targetPoint" />
          </mxGeometry>
        </mxCell>
        <mxCell id="8QmGb76ZduSFkE2n4Eqo-7" value="" style="endArrow=classic;html=1;rounded=0;entryX=0.567;entryY=0.017;entryDx=0;entryDy=0;entryPerimeter=0;exitX=0.5;exitY=1;exitDx=0;exitDy=0;" edge="1" parent="1" source="8QmGb76ZduSFkE2n4Eqo-4" target="8QmGb76ZduSFkE2n4Eqo-2">
          <mxGeometry width="50" height="50" relative="1" as="geometry">
            <mxPoint x="390" y="310" as="sourcePoint" />
            <mxPoint x="440" y="260" as="targetPoint" />
          </mxGeometry>
        </mxCell>
        <mxCell id="8QmGb76ZduSFkE2n4Eqo-8" value="" style="endArrow=classic;html=1;rounded=0;exitX=0.5;exitY=1;exitDx=0;exitDy=0;entryX=0.5;entryY=0;entryDx=0;entryDy=0;" edge="1" parent="1" source="8QmGb76ZduSFkE2n4Eqo-5" target="8QmGb76ZduSFkE2n4Eqo-3">
          <mxGeometry width="50" height="50" relative="1" as="geometry">
            <mxPoint x="390" y="310" as="sourcePoint" />
            <mxPoint x="440" y="260" as="targetPoint" />
          </mxGeometry>
        </mxCell>
        <mxCell id="8QmGb76ZduSFkE2n4Eqo-10" value="" style="endArrow=classic;html=1;rounded=0;entryX=1;entryY=0.5;entryDx=0;entryDy=0;exitX=0;exitY=0.5;exitDx=0;exitDy=0;" edge="1" parent="1" source="8QmGb76ZduSFkE2n4Eqo-2" target="8QmGb76ZduSFkE2n4Eqo-5">
          <mxGeometry width="50" height="50" relative="1" as="geometry">
            <mxPoint x="390" y="310" as="sourcePoint" />
            <mxPoint x="440" y="260" as="targetPoint" />
          </mxGeometry>
        </mxCell>
        <mxCell id="8QmGb76ZduSFkE2n4Eqo-11" style="edgeStyle=orthogonalEdgeStyle;rounded=0;orthogonalLoop=1;jettySize=auto;html=1;" edge="1" parent="1" source="8QmGb76ZduSFkE2n4Eqo-4" target="8QmGb76ZduSFkE2n4Eqo-4">
          <mxGeometry relative="1" as="geometry" />
        </mxCell>
      </root>
    </mxGraphModel>
  </diagram>
</mxfile>
